<svg width="48" height="45" viewBox="0 0 48 45" fill="none" xmlns="http://www.w3.org/2000/svg">
<path d="M39.6181 44.1002C37.9648 44.0589 36.4148 43.4802 34.9681 42.3642C33.5215 41.2896 32.1988 39.9256 31.0001 38.2722C29.8428 36.5776 28.8508 34.8622 28.0241 33.1262C27.1975 31.3902 26.5568 29.8816 26.1021 28.6002C25.8128 27.6909 25.4615 26.7609 25.0481 25.8102C24.6348 24.8182 24.2421 23.9709 23.8701 23.2682C23.4981 22.5656 23.2088 22.1522 23.0021 22.0282C22.6715 21.8629 22.5061 21.5942 22.5061 21.2222C22.5061 20.9742 22.5888 20.7469 22.7541 20.5402C22.9608 20.2922 23.1675 20.1682 23.3741 20.1682C23.6221 20.1682 23.7668 20.3129 23.8081 20.6022C23.8908 20.8502 24.0768 21.1396 24.3661 21.4702C24.6555 21.7596 25.2135 21.9662 26.0401 22.0902C27.2801 22.2142 28.4788 21.8422 29.6361 20.9742C30.7935 20.0649 31.8268 18.8869 32.7361 17.4402C33.6455 15.9936 34.3688 14.5056 34.9061 12.9762C35.4848 11.4469 35.8155 10.1449 35.8981 9.07023C36.0221 7.25156 35.6915 5.70156 34.9061 4.42023C34.1621 3.09756 32.8808 2.43623 31.0621 2.43623C29.2021 2.43623 27.7968 3.09756 26.8461 4.42023C25.8955 5.7429 25.0275 7.4169 24.2421 9.44223C24.0768 9.93823 23.8081 10.8269 23.4361 12.1082C23.0641 13.3896 22.6095 15.2082 22.0721 17.5642C21.5761 19.8789 20.9768 22.8756 20.2741 26.5542C20.2328 26.8436 20.1295 27.4429 19.9641 28.3522C19.8401 29.2202 19.7161 30.1916 19.5921 31.2662C19.4681 32.3409 19.4061 33.3742 19.4061 34.3662C19.4061 34.5729 19.4061 34.8002 19.4061 35.0482C19.4061 35.2549 19.4268 35.4616 19.4681 35.6682C19.5508 36.5776 19.8608 37.3629 20.3981 38.0242C20.9768 38.6442 21.7208 38.9956 22.6301 39.0782C23.4568 39.2022 24.4901 39.2642 25.7301 39.2642C26.2675 39.2642 26.7635 39.2642 27.2181 39.2642C27.7141 39.2229 28.1688 39.1816 28.5821 39.1402C28.7061 39.1402 28.7681 39.2022 28.7681 39.3262C28.7681 39.4916 28.6441 39.7189 28.3961 40.0082C28.1895 40.2562 27.9621 40.3596 27.7141 40.3182C24.4075 40.2356 21.7415 40.1736 19.7161 40.1322C17.7321 40.0909 16.1201 40.0702 14.8801 40.0702C13.6815 40.0289 12.6275 40.0082 11.7181 40.0082C11.0981 40.0082 10.1888 40.0289 8.99012 40.0702C7.79145 40.1116 6.46878 40.1529 5.02212 40.1942C3.57545 40.1942 2.19078 40.1942 0.868117 40.1942H0.806117C0.682117 40.1942 0.620117 40.1322 0.620117 40.0082C0.620117 39.8429 0.723451 39.6569 0.930117 39.4502C1.17812 39.2022 1.38478 39.0989 1.55012 39.1402C2.54212 39.1402 3.43078 39.1609 4.21612 39.2022C5.00145 39.2022 5.68345 39.2022 6.26212 39.2022C7.75012 39.2022 8.84545 39.0576 9.54812 38.7682C10.2508 38.4376 10.8088 37.7762 11.2221 36.7842C11.6355 35.7922 12.1315 34.2629 12.7101 32.1962C13.9915 27.6909 15.0455 23.3716 15.8721 19.2382C16.6988 15.0636 17.5048 10.7236 18.2901 6.21823C18.4141 5.39156 18.2488 4.6889 17.7941 4.11023C17.3808 3.49023 16.9055 3.1389 16.3681 3.05623C15.9548 2.97356 15.2521 2.91156 14.2601 2.87023C13.3095 2.8289 12.3588 2.80823 11.4081 2.80823C10.4575 2.7669 9.83745 2.7669 9.54812 2.80823C9.34145 2.80823 9.23812 2.72556 9.23812 2.56023C9.23812 2.3949 9.34145 2.22956 9.54812 2.06423C9.75478 1.85756 9.96145 1.75423 10.1681 1.75423C11.8628 1.75423 13.8468 1.79556 16.1201 1.87823C18.3935 1.9609 20.5015 2.00223 22.4441 2.00223H23.5601C24.7588 2.00223 26.3295 1.81623 28.2721 1.44423C30.2148 1.07223 32.1161 0.88623 33.9761 0.88623C35.6295 0.88623 37.1381 1.1549 38.5021 1.69223C39.8661 2.22956 40.9615 3.03556 41.7881 4.11023C42.6561 5.14356 43.0901 6.48689 43.0901 8.14023C43.0901 8.4709 43.0695 8.82223 43.0281 9.19423C42.9868 9.56623 42.9248 9.9589 42.8421 10.3722C42.5115 12.0256 41.7468 13.6376 40.5481 15.2082C39.3495 16.7376 37.9028 18.1016 36.2081 19.3002C34.5548 20.4576 32.8188 21.3462 31.0001 21.9662C29.8428 22.3382 28.8508 22.6069 28.0241 22.7722C27.1975 22.8962 26.4948 22.9582 25.9161 22.9582C25.7508 22.9582 25.5855 22.9582 25.4201 22.9582C25.2548 22.9582 25.1101 22.9376 24.9861 22.8962C25.5648 23.6816 26.4741 24.7356 27.7141 26.0582C28.9541 27.3396 30.3388 28.7242 31.8681 30.2122C33.3974 31.6589 34.9268 33.0642 36.4561 34.4282C37.9854 35.7922 39.3495 36.9909 40.5481 38.0242C41.7881 39.0162 42.6768 39.6776 43.2141 40.0082C43.7928 40.3802 44.4541 40.7109 45.1981 41.0002C45.9421 41.3309 46.4795 41.5376 46.8101 41.6202C47.0168 41.7029 47.1201 41.8476 47.1201 42.0542C47.1201 42.3849 46.9548 42.5502 46.6241 42.5502C46.4588 42.5502 46.2521 42.4882 46.0041 42.3642C45.6735 42.1989 45.3635 42.1162 45.0741 42.1162C44.7435 42.1162 44.4748 42.1989 44.2681 42.3642C44.0615 42.5709 43.8548 42.7362 43.6481 42.8602C43.1521 43.1909 42.5321 43.4802 41.7881 43.7282C41.0855 43.9762 40.3621 44.1002 39.6181 44.1002Z" fill="white"/>
</svg>
